<svg xmlns="http://www.w3.org/2000/svg" xmlns:xlink="http://www.w3.org/1999/xlink" width="500" zoomAndPan="magnify" viewBox="0 0 375 374.999991" height="500" preserveAspectRatio="xMidYMid meet" version="1.0"><defs><g/><clipPath id="3e4ba6513a"><path d="M 32.980469 152.246094 L 82.480469 152.246094 L 82.480469 209 L 32.980469 209 Z M 32.980469 152.246094 " clip-rule="nonzero"/></clipPath><clipPath id="5a50fa54d1"><path d="M 48 210 L 67 210 L 67 222.734375 L 48 222.734375 Z M 48 210 " clip-rule="nonzero"/></clipPath></defs><g fill="#ffffff" fill-opacity="1"><g transform="translate(93.843493, 201.823807)"><g><path d="M 11.015625 -22.40625 L 11.015625 -22.59375 C 9.453125 -22.5 7.71875 -22.40625 6.28125 -22.40625 C 4.859375 -22.40625 3.140625 -22.5 1.53125 -22.59375 L 1.53125 -22.40625 C 3.359375 -22.03125 4.078125 -21.25 4.171875 -19.65625 C 4.359375 -16.828125 4.359375 -14.5625 4.359375 -11.296875 C 4.359375 -8.03125 4.359375 -5.78125 4.171875 -2.953125 C 4.078125 -1.34375 3.359375 -0.5625 1.53125 -0.1875 L 1.53125 0 C 3.140625 -0.09375 4.859375 -0.1875 6.28125 -0.1875 C 7.71875 -0.1875 9.453125 -0.09375 11.015625 0 L 11.015625 -0.1875 C 9.234375 -0.5625 8.5 -1.34375 8.40625 -2.953125 C 8.21875 -6.125 8.1875 -7.65625 8.1875 -11.296875 C 8.1875 -14.9375 8.21875 -16.484375 8.40625 -19.65625 C 8.5 -21.25 9.171875 -22 11.015625 -22.40625 Z M 11.015625 -22.40625 "/></g></g></g><g fill="#ffffff" fill-opacity="1"><g transform="translate(106.397668, 201.823807)"><g><path d="M 21.78125 -22.40625 C 20.75 -22.40625 19.6875 -22.46875 18.078125 -22.59375 L 18.078125 -22.40625 C 19.65625 -22.03125 20.5 -21.40625 20.59375 -19.625 C 20.71875 -17.234375 20.78125 -15.21875 20.78125 -12.109375 L 20.78125 -7.34375 C 15.28125 -12.34375 9.765625 -17.515625 4.234375 -22.953125 L 4.171875 -22.953125 C 4.203125 -19.34375 4.203125 -15.125 4.203125 -11.515625 C 4.203125 -8.03125 4.171875 -5.6875 4.046875 -2.953125 C 3.953125 -1.1875 3.109375 -0.5625 1.53125 -0.1875 L 1.53125 0 C 3.109375 -0.125 4.046875 -0.1875 5.078125 -0.1875 C 6.09375 -0.1875 7.25 -0.125 8.859375 0 L 8.859375 -0.1875 C 7.28125 -0.5625 6.4375 -1.1875 6.34375 -3.015625 C 6.21875 -5.71875 6.15625 -8.0625 6.15625 -11.546875 L 6.15625 -15.28125 C 11.828125 -10.203125 17.328125 -4.984375 22.703125 0.3125 L 22.765625 0.3125 C 22.734375 -3.640625 22.734375 -8 22.734375 -11.859375 C 22.734375 -15.0625 22.765625 -17.203125 22.890625 -19.65625 C 22.984375 -21.40625 23.828125 -22.03125 25.390625 -22.40625 L 25.390625 -22.59375 C 23.828125 -22.46875 22.828125 -22.40625 21.78125 -22.40625 Z M 21.78125 -22.40625 "/></g></g></g><g fill="#ffffff" fill-opacity="1"><g transform="translate(133.326363, 201.823807)"><g><path d="M 7.9375 0.3125 C 12.109375 0.3125 15.4375 -2.171875 15.4375 -6.03125 C 15.4375 -12.3125 6.5 -14.1875 6.5 -18.609375 C 6.5 -20.21875 7.65625 -21.59375 9.921875 -21.59375 C 11.828125 -21.59375 13.40625 -20.53125 13.90625 -17.890625 L 14.09375 -17.890625 C 13.90625 -18.953125 13.96875 -20.59375 14.09375 -21.75 C 13.09375 -22.375 11.703125 -22.921875 9.765625 -22.921875 C 6.21875 -22.921875 2.734375 -21.125 2.734375 -17.265625 C 2.734375 -11.296875 11.640625 -9.515625 11.640625 -4.453125 C 11.640625 -2.203125 9.890625 -1 7.75 -1 C 5.3125 -1 3.140625 -2.671875 2.546875 -5.75 L 2.359375 -5.75 C 2.515625 -4.296875 2.484375 -2.953125 2.359375 -1.53125 C 3.390625 -0.75 5.203125 0.3125 7.9375 0.3125 Z M 7.9375 0.3125 "/></g></g></g><g fill="#ffffff" fill-opacity="1"><g transform="translate(150.964976, 201.823807)"><g><path d="M 11.015625 -22.40625 L 11.015625 -22.59375 C 9.453125 -22.5 7.71875 -22.40625 6.28125 -22.40625 C 4.859375 -22.40625 3.140625 -22.5 1.53125 -22.59375 L 1.53125 -22.40625 C 3.359375 -22.03125 4.078125 -21.25 4.171875 -19.65625 C 4.359375 -16.828125 4.359375 -14.5625 4.359375 -11.296875 C 4.359375 -8.03125 4.359375 -5.78125 4.171875 -2.953125 C 4.078125 -1.34375 3.359375 -0.5625 1.53125 -0.1875 L 1.53125 0 C 3.140625 -0.09375 4.859375 -0.1875 6.28125 -0.1875 C 7.71875 -0.1875 9.453125 -0.09375 11.015625 0 L 11.015625 -0.1875 C 9.234375 -0.5625 8.5 -1.34375 8.40625 -2.953125 C 8.21875 -6.125 8.1875 -7.65625 8.1875 -11.296875 C 8.1875 -14.9375 8.21875 -16.484375 8.40625 -19.65625 C 8.5 -21.25 9.171875 -22 11.015625 -22.40625 Z M 11.015625 -22.40625 "/></g></g></g><g fill="#ffffff" fill-opacity="1"><g transform="translate(163.51915, 201.823807)"><g><path d="M 19.53125 -10.265625 C 17.953125 -10.265625 16.390625 -10.328125 14.65625 -10.453125 L 14.65625 -10.265625 C 16.703125 -9.921875 17.453125 -9.359375 17.609375 -7.6875 C 17.828125 -5.71875 17.828125 -4.390625 17.828125 -1.5625 C 16.828125 -1.1875 15.734375 -1 14.65625 -1 C 8.21875 -1 5.84375 -7 5.84375 -12.078125 C 5.84375 -17.171875 8.65625 -21.59375 14.3125 -21.59375 C 17.390625 -21.59375 19.90625 -20.3125 21 -16.765625 L 21.1875 -16.765625 C 20.96875 -18.390625 20.9375 -19.9375 21.1875 -21.59375 C 19.46875 -22.25 16.953125 -22.921875 14.1875 -22.921875 C 6.875 -22.921875 1.59375 -18.140625 1.59375 -11.296875 C 1.59375 -4.609375 6.59375 0.3125 14.1875 0.3125 C 17.171875 0.3125 20.125 -0.40625 21.78125 -1 C 21.59375 -3.921875 21.625 -5.8125 21.84375 -7.6875 C 22 -9.359375 22.65625 -9.984375 24.171875 -10.265625 L 24.171875 -10.453125 C 22.828125 -10.328125 21.0625 -10.265625 19.53125 -10.265625 Z M 19.53125 -10.265625 "/></g></g></g><g fill="#ffffff" fill-opacity="1"><g transform="translate(188.753037, 201.823807)"><g><path d="M 26.9375 -22.40625 L 26.9375 -22.59375 C 25.359375 -22.5 23.609375 -22.40625 22.1875 -22.40625 C 20.75 -22.40625 19.015625 -22.5 17.421875 -22.59375 L 17.421875 -22.40625 C 19.25 -22.03125 19.96875 -21.25 20.0625 -19.65625 C 20.21875 -17.234375 20.28125 -15.21875 20.28125 -12.6875 C 18.421875 -12.5625 16.578125 -12.5 14.5625 -12.5 C 12.3125 -12.5 10.234375 -12.53125 8.1875 -12.6875 C 8.1875 -15.375 8.25 -16.921875 8.40625 -19.65625 C 8.5 -21.25 9.171875 -22 11.015625 -22.40625 L 11.015625 -22.59375 C 9.453125 -22.5 7.71875 -22.40625 6.28125 -22.40625 C 4.859375 -22.40625 3.140625 -22.5 1.53125 -22.59375 L 1.53125 -22.40625 C 3.359375 -22.03125 4.078125 -21.25 4.171875 -19.65625 C 4.359375 -16.828125 4.359375 -14.5625 4.359375 -11.296875 C 4.359375 -8.03125 4.359375 -5.78125 4.171875 -2.953125 C 4.078125 -1.34375 3.359375 -0.5625 1.53125 -0.1875 L 1.53125 0 C 3.140625 -0.09375 4.859375 -0.1875 6.28125 -0.1875 C 7.71875 -0.1875 9.453125 -0.09375 11.015625 0 L 11.015625 -0.1875 C 9.234375 -0.5625 8.5 -1.34375 8.40625 -2.953125 C 8.21875 -6.03125 8.1875 -7.5625 8.1875 -11.015625 C 10.171875 -11.140625 12.109375 -11.171875 14.09375 -11.171875 C 16.203125 -11.171875 18.234375 -11.140625 20.28125 -11.015625 C 20.28125 -7.90625 20.25 -5.6875 20.0625 -2.953125 C 19.96875 -1.34375 19.25 -0.5625 17.421875 -0.1875 L 17.421875 0 C 19.015625 -0.09375 20.75 -0.1875 22.1875 -0.1875 C 23.609375 -0.1875 25.359375 -0.09375 26.9375 0 L 26.9375 -0.1875 C 25.109375 -0.5625 24.421875 -1.34375 24.328125 -2.953125 C 24.109375 -6.125 24.109375 -7.65625 24.109375 -11.296875 C 24.109375 -14.9375 24.109375 -16.484375 24.328125 -19.65625 C 24.421875 -21.25 25.078125 -22 26.9375 -22.40625 Z M 26.9375 -22.40625 "/></g></g></g><g fill="#ffffff" fill-opacity="1"><g transform="translate(217.219623, 201.823807)"><g><path d="M 21.53125 -23.546875 C 21.375 -22.921875 21.0625 -22.828125 20.5 -22.734375 C 19.40625 -22.59375 13.5625 -22.4375 11.265625 -22.4375 C 8.984375 -22.4375 3.765625 -22.5625 2.796875 -22.703125 C 2.421875 -22.765625 2.203125 -22.828125 2.265625 -23.609375 L 2.078125 -23.609375 C 1.890625 -22.125 1.28125 -19.109375 0.90625 -18.078125 L 1.09375 -18.046875 C 1.59375 -19.375 2.015625 -20.5625 3.515625 -20.78125 C 4.640625 -20.96875 7.125 -21.09375 9.265625 -21.125 C 9.421875 -17.921875 9.453125 -14.34375 9.453125 -11.234375 C 9.453125 -7.96875 9.421875 -5.6875 9.234375 -2.859375 C 9.140625 -1.28125 8.40625 -0.5 6.59375 -0.125 L 6.59375 0.0625 C 8.1875 -0.03125 9.921875 -0.125 11.359375 -0.125 C 12.78125 -0.125 14.53125 -0.03125 16.109375 0.0625 L 16.109375 -0.125 C 14.25 -0.53125 13.59375 -1.28125 13.5 -2.859375 C 13.28125 -6.03125 13.28125 -7.625 13.28125 -11.234375 C 13.28125 -14.75 13.3125 -18.109375 13.4375 -21.125 C 15.53125 -21.09375 17.921875 -20.96875 19.015625 -20.8125 C 20.46875 -20.59375 20.6875 -19.59375 20.5625 -18.328125 L 20.75 -18.328125 C 20.875 -19.46875 21.25 -21.78125 21.71875 -23.546875 Z M 21.53125 -23.546875 "/></g></g></g><g fill="#ffffff" fill-opacity="1"><g transform="translate(239.942673, 201.823807)"><g/></g></g><g fill="#ffffff" fill-opacity="1"><g transform="translate(247.381018, 201.823807)"><g><path d="M 21.78125 -22.40625 C 20.75 -22.40625 19.6875 -22.46875 18.078125 -22.59375 L 18.078125 -22.40625 C 19.65625 -22.03125 20.5 -21.40625 20.59375 -19.625 C 20.71875 -17.234375 20.78125 -15.21875 20.78125 -12.109375 L 20.78125 -7.34375 C 15.28125 -12.34375 9.765625 -17.515625 4.234375 -22.953125 L 4.171875 -22.953125 C 4.203125 -19.34375 4.203125 -15.125 4.203125 -11.515625 C 4.203125 -8.03125 4.171875 -5.6875 4.046875 -2.953125 C 3.953125 -1.1875 3.109375 -0.5625 1.53125 -0.1875 L 1.53125 0 C 3.109375 -0.125 4.046875 -0.1875 5.078125 -0.1875 C 6.09375 -0.1875 7.25 -0.125 8.859375 0 L 8.859375 -0.1875 C 7.28125 -0.5625 6.4375 -1.1875 6.34375 -3.015625 C 6.21875 -5.71875 6.15625 -8.0625 6.15625 -11.546875 L 6.15625 -15.28125 C 11.828125 -10.203125 17.328125 -4.984375 22.703125 0.3125 L 22.765625 0.3125 C 22.734375 -3.640625 22.734375 -8 22.734375 -11.859375 C 22.734375 -15.0625 22.765625 -17.203125 22.890625 -19.65625 C 22.984375 -21.40625 23.828125 -22.03125 25.390625 -22.40625 L 25.390625 -22.59375 C 23.828125 -22.46875 22.828125 -22.40625 21.78125 -22.40625 Z M 21.78125 -22.40625 "/></g></g></g><g fill="#ffffff" fill-opacity="1"><g transform="translate(274.309714, 201.823807)"><g><path d="M 13.84375 0.3125 C 20.9375 0.3125 25.828125 -4.765625 25.828125 -11.359375 C 25.828125 -18.078125 20.5 -22.953125 13.65625 -22.953125 C 6.59375 -22.953125 1.59375 -17.859375 1.59375 -11.234375 C 1.59375 -4.546875 6.96875 0.3125 13.84375 0.3125 Z M 14.09375 -0.96875 C 8.6875 -0.96875 5.75 -6.46875 5.75 -12.078125 C 5.75 -17.515625 8.765625 -21.65625 13.40625 -21.65625 C 18.796875 -21.65625 21.6875 -16.140625 21.6875 -10.578125 C 21.6875 -5.015625 18.703125 -0.96875 14.09375 -0.96875 Z M 14.09375 -0.96875 "/></g></g></g><g fill="#ffffff" fill-opacity="1"><g transform="translate(301.771971, 201.823807)"><g><path d="M 31.421875 -22.40625 C 30.296875 -22.40625 29.3125 -22.5 28.34375 -22.59375 L 28.34375 -22.40625 C 29.765625 -22.21875 30.265625 -21.28125 29.53125 -19.53125 C 27.625 -14.96875 25.671875 -10.359375 23.578125 -5.78125 C 22.40625 -8.0625 21.28125 -10.359375 20.21875 -12.625 C 21.28125 -14.90625 22.34375 -17.203125 23.484375 -19.46875 C 24.390625 -21.28125 25.171875 -22 26.34375 -22.40625 L 26.34375 -22.59375 C 25.453125 -22.5 24.515625 -22.40625 23.453125 -22.40625 C 22.3125 -22.40625 21.34375 -22.5 20.375 -22.59375 L 20.375 -22.40625 C 21.8125 -22.21875 22.28125 -21.28125 21.5625 -19.53125 L 19.40625 -14.375 C 18.578125 -16.109375 17.796875 -17.828125 17.015625 -19.53125 C 16.203125 -21.25 17.109375 -22.21875 18.328125 -22.40625 L 18.328125 -22.59375 C 17.078125 -22.5 15.4375 -22.40625 14.46875 -22.40625 C 13.46875 -22.40625 11.703125 -22.5 10.171875 -22.59375 L 10.171875 -22.40625 C 11.328125 -22.03125 11.890625 -21.25 12.8125 -19.46875 C 14 -17.078125 15.1875 -14.6875 16.359375 -12.3125 C 15.4375 -10.140625 14.5 -8 13.53125 -5.875 C 11.171875 -10.421875 9.015625 -15 6.96875 -19.53125 C 6.1875 -21.25 7.0625 -22.21875 8.3125 -22.40625 L 8.3125 -22.59375 C 7.0625 -22.5 5.4375 -22.40625 4.453125 -22.40625 C 3.453125 -22.40625 1.65625 -22.5 0.15625 -22.59375 L 0.15625 -22.40625 C 1.3125 -22.03125 1.890625 -21.25 2.796875 -19.46875 C 6.125 -12.875 9.265625 -6.28125 12.25 0.3125 L 12.3125 0.3125 C 13.875 -3.328125 15.46875 -6.96875 17.171875 -10.578125 C 18.921875 -6.96875 20.625 -3.328125 22.25 0.3125 L 22.3125 0.3125 C 25.171875 -6.28125 28.1875 -12.875 31.453125 -19.46875 C 32.359375 -21.28125 33.15625 -22 34.3125 -22.40625 L 34.3125 -22.59375 C 33.4375 -22.5 32.484375 -22.40625 31.421875 -22.40625 Z M 31.421875 -22.40625 "/></g></g></g><g clip-path="url(#3e4ba6513a)"><path fill="#ff3131" d="M 57.210938 154.171875 C 59.027344 154.171875 60.847656 154.367188 62.566406 154.847656 C 62.761719 154.367188 63.046875 153.988281 63.425781 153.605469 C 64.1875 152.746094 65.34375 152.269531 66.582031 152.269531 C 67.824219 152.269531 68.878906 152.746094 69.738281 153.605469 C 70.5 154.367188 70.980469 155.523438 70.980469 156.765625 C 70.980469 157.441406 70.882812 158.003906 70.601562 158.582031 C 71.460938 159.257812 72.320312 160.019531 73.09375 160.78125 C 76.25 163.9375 78.550781 168.152344 79.324219 172.746094 C 80.085938 172.847656 80.761719 173.128906 81.339844 173.609375 C 81.820312 174.183594 82.199219 174.945312 82.199219 175.804688 C 82.199219 176.566406 81.820312 177.34375 81.339844 177.90625 C 80.859375 178.386719 80.183594 178.667969 79.523438 178.765625 C 79.238281 180.300781 78.664062 182.121094 77.902344 184.039062 C 78.378906 184.234375 78.761719 184.515625 79.140625 184.898438 C 80 185.660156 80.480469 186.8125 80.480469 188.054688 C 80.480469 189.292969 80 190.351562 79.140625 191.210938 C 78.378906 191.972656 77.222656 192.453125 75.984375 192.453125 C 75.40625 192.453125 74.828125 192.351562 74.265625 192.171875 C 73.882812 192.847656 73.589844 193.609375 73.207031 194.367188 C 73.304688 194.46875 73.40625 194.566406 73.488281 194.652344 C 74.066406 195.230469 74.347656 195.890625 74.347656 196.75 C 74.347656 197.609375 74.066406 198.371094 73.488281 198.851562 C 72.910156 199.429688 72.148438 199.710938 71.390625 199.710938 C 71.105469 199.710938 70.710938 199.710938 70.429688 199.613281 C 68.808594 202.769531 67.273438 205.84375 66.117188 208.617188 L 65.921875 208.902344 L 48.5 208.902344 L 48.300781 208.617188 C 46.964844 205.390625 45.046875 201.753906 43.128906 198.117188 C 41.890625 195.625 40.632812 193.242188 39.589844 190.929688 C 39.210938 191.027344 38.832031 191.128906 38.4375 191.128906 C 37.675781 191.128906 36.898438 190.746094 36.335938 190.167969 C 35.757812 189.691406 35.476562 188.929688 35.476562 188.070312 C 35.476562 187.308594 35.757812 186.53125 36.335938 185.96875 C 36.53125 185.769531 36.816406 185.589844 37.097656 185.488281 C 35.660156 182.035156 34.699219 178.976562 34.699219 176.679688 C 34.699219 175.722656 34.800781 174.761719 34.898438 173.804688 C 34.515625 173.609375 34.136719 173.425781 33.839844 173.128906 C 33.261719 172.550781 32.980469 171.789062 32.980469 171.027344 C 32.980469 170.167969 33.261719 169.40625 33.839844 168.828125 C 34.417969 168.351562 35.179688 167.96875 35.941406 167.96875 C 36.136719 167.96875 36.320312 167.96875 36.421875 168.066406 C 37 166.828125 37.574219 165.671875 38.238281 164.53125 C 37.660156 163.855469 37.179688 162.992188 37.179688 162.035156 C 37.179688 160.980469 37.660156 160.117188 38.238281 159.457031 C 38.914062 158.78125 39.859375 158.398438 40.816406 158.398438 C 41.675781 158.398438 42.4375 158.679688 43.015625 159.160156 C 46.964844 155.988281 51.839844 154.171875 57.210938 154.171875 Z M 64.199219 200.894531 L 68.613281 198.019531 C 68.414062 197.640625 68.332031 197.257812 68.332031 196.777344 C 68.332031 195.917969 68.710938 195.242188 69.289062 194.679688 C 69.769531 194.101562 70.53125 193.820312 71.390625 193.820312 C 71.671875 193.820312 71.96875 193.820312 72.25 193.917969 C 72.628906 193.15625 73.011719 192.382812 73.40625 191.71875 C 73.207031 191.523438 73.023438 191.4375 72.828125 191.238281 C 72.066406 190.378906 71.488281 189.324219 71.488281 188.082031 C 71.488281 186.84375 72.066406 185.6875 72.828125 184.925781 L 72.925781 184.828125 L 69.386719 180.230469 C 68.527344 180.808594 67.570312 181.089844 66.609375 181.089844 C 66.230469 181.089844 65.851562 180.992188 65.457031 180.894531 L 63.734375 186.449219 C 64.019531 186.546875 64.3125 186.730469 64.496094 187.027344 C 65.074219 187.503906 65.355469 188.265625 65.355469 189.125 C 65.355469 189.984375 65.074219 190.660156 64.496094 191.226562 C 63.917969 191.804688 63.15625 192.085938 62.398438 192.085938 C 61.535156 192.085938 60.777344 191.804688 60.296875 191.226562 C 59.71875 190.648438 59.339844 189.984375 59.339844 189.125 C 59.339844 188.265625 59.71875 187.503906 60.296875 187.027344 C 60.777344 186.449219 61.535156 186.066406 62.398438 186.066406 C 62.496094 186.066406 62.679688 186.164062 62.777344 186.164062 L 64.496094 180.613281 C 63.917969 180.414062 63.339844 180.035156 62.875 179.554688 C 61.917969 178.597656 61.253906 177.257812 61.253906 175.820312 C 61.253906 174.578125 61.734375 173.425781 62.410156 172.464844 L 59.632812 169.789062 C 59.054688 170.167969 58.476562 170.367188 57.816406 170.367188 C 56.957031 170.367188 56.195312 170.082031 55.714844 169.507812 C 55.136719 168.929688 54.757812 168.265625 54.757812 167.40625 C 54.757812 166.546875 55.136719 165.785156 55.714844 165.304688 C 56.195312 164.726562 56.957031 164.347656 57.816406 164.347656 C 58.578125 164.347656 59.351562 164.726562 59.917969 165.304688 C 60.492188 165.785156 60.777344 166.546875 60.777344 167.40625 C 60.777344 167.984375 60.578125 168.5625 60.296875 169.027344 L 63.171875 171.804688 C 64.03125 170.945312 65.273438 170.464844 66.625 170.464844 C 68.0625 170.464844 69.402344 171.140625 70.359375 172.085938 C 71.121094 172.847656 71.699219 174.003906 71.796875 175.242188 L 76.210938 175.242188 C 76.308594 174.664062 76.6875 174.085938 77.070312 173.621094 C 77.449219 173.339844 77.929688 173.042969 78.410156 172.859375 C 77.648438 168.449219 75.433594 164.53125 72.472656 161.472656 C 71.714844 160.796875 70.9375 160.132812 70.175781 159.457031 C 69.980469 159.652344 69.894531 159.738281 69.796875 159.9375 C 69.414062 160.316406 68.9375 160.613281 68.457031 160.796875 L 69.035156 162.710938 C 69.234375 162.710938 69.316406 162.710938 69.515625 162.710938 C 70.375 162.710938 71.050781 162.992188 71.613281 163.570312 C 72.191406 164.148438 72.472656 164.8125 72.472656 165.671875 C 72.472656 166.53125 72.191406 167.292969 71.613281 167.773438 C 71.035156 168.351562 70.375 168.632812 69.515625 168.632812 C 68.65625 168.632812 67.894531 168.351562 67.414062 167.773438 C 66.835938 167.292969 66.554688 166.53125 66.554688 165.671875 C 66.554688 164.8125 66.835938 164.136719 67.414062 163.570312 C 67.613281 163.375 67.894531 163.191406 68.089844 162.992188 L 67.511719 161.175781 C 67.230469 161.175781 66.933594 161.273438 66.652344 161.273438 C 65.414062 161.273438 64.257812 160.695312 63.496094 159.9375 C 62.636719 159.074219 62.15625 158.019531 62.15625 156.777344 C 62.15625 156.398438 62.15625 156.101562 62.257812 155.722656 C 60.636719 155.4375 59 155.144531 57.28125 155.144531 C 52.207031 155.144531 47.511719 156.960938 43.875 159.9375 C 44.074219 160.21875 44.257812 160.613281 44.355469 160.992188 L 50.964844 160.132812 C 51.066406 159.273438 51.347656 158.597656 51.925781 158.03125 C 52.402344 157.554688 53.164062 157.171875 54.023438 157.171875 C 54.882812 157.171875 55.5625 157.554688 56.125 158.03125 C 56.703125 158.609375 56.984375 159.371094 56.984375 160.230469 C 56.984375 160.992188 56.703125 161.769531 56.125 162.332031 C 55.546875 162.910156 54.882812 163.191406 54.023438 163.191406 C 53.164062 163.191406 52.402344 162.910156 51.925781 162.332031 C 51.542969 161.949219 51.246094 161.570312 51.164062 161.089844 L 44.554688 162.050781 C 44.554688 163.007812 44.171875 163.867188 43.496094 164.542969 C 43.398438 164.644531 43.398438 164.644531 43.398438 164.644531 L 45.019531 166.941406 C 45.695312 166.558594 46.355469 166.363281 47.21875 166.363281 C 48.371094 166.363281 49.515625 166.84375 50.375 167.601562 C 51.136719 168.460938 51.613281 169.617188 51.613281 170.761719 C 51.613281 172 51.136719 173.15625 50.375 173.917969 C 49.515625 174.777344 48.359375 175.257812 47.21875 175.257812 C 45.976562 175.257812 44.820312 174.777344 44.058594 173.917969 C 43.296875 173.242188 42.902344 172.382812 42.71875 171.421875 L 38.914062 171.421875 C 38.816406 172.097656 38.535156 172.664062 38.054688 173.140625 C 37.574219 173.621094 36.816406 174.003906 35.957031 174.003906 C 35.757812 174.863281 35.757812 175.722656 35.757812 176.679688 C 35.757812 178.878906 36.617188 181.851562 38.054688 185.109375 C 38.152344 185.109375 38.335938 185.109375 38.4375 185.109375 C 38.914062 185.109375 39.296875 185.207031 39.675781 185.390625 L 42.070312 181.9375 L 41.972656 181.839844 C 41.394531 181.359375 41.113281 180.597656 41.113281 179.738281 C 41.113281 178.878906 41.394531 178.117188 41.972656 177.636719 C 42.550781 177.0625 43.3125 176.777344 44.074219 176.777344 C 44.933594 176.777344 45.695312 177.0625 46.171875 177.636719 C 46.75 178.117188 47.132812 178.878906 47.132812 179.738281 C 47.132812 180.597656 46.75 181.359375 46.171875 181.839844 C 45.695312 182.417969 44.933594 182.699219 44.074219 182.699219 C 43.691406 182.699219 43.214844 182.601562 42.832031 182.5 L 40.535156 185.953125 L 40.632812 185.953125 C 40.917969 186.234375 41.113281 186.632812 41.3125 187.109375 L 49.160156 185.769531 C 49.160156 184.910156 49.445312 184.148438 50.023438 183.574219 C 50.597656 183.09375 51.359375 182.710938 52.121094 182.710938 C 52.402344 182.710938 52.699219 182.8125 52.882812 182.8125 L 54.320312 179.753906 C 54.125 179.652344 53.941406 179.554688 53.839844 179.371094 C 53.261719 178.894531 52.980469 178.132812 52.980469 177.273438 C 52.980469 176.414062 53.261719 175.734375 53.839844 175.171875 C 54.320312 174.59375 55.082031 174.3125 55.941406 174.3125 C 56.800781 174.3125 57.476562 174.59375 58.042969 175.171875 C 58.621094 175.75 58.902344 176.414062 58.902344 177.273438 C 58.902344 178.132812 58.621094 178.894531 58.042969 179.371094 C 57.464844 179.949219 56.800781 180.332031 55.941406 180.332031 C 55.660156 180.332031 55.460938 180.230469 55.179688 180.230469 L 53.839844 183.289062 C 53.941406 183.390625 54.125 183.488281 54.222656 183.574219 C 54.800781 184.148438 55.179688 184.910156 55.179688 185.769531 C 55.179688 186.53125 54.800781 187.308594 54.222656 187.871094 C 53.742188 188.449219 52.980469 188.730469 52.121094 188.730469 C 51.359375 188.730469 50.585938 188.449219 50.023438 187.871094 C 49.738281 187.589844 49.445312 187.195312 49.34375 186.714844 L 41.496094 188.054688 C 41.496094 188.914062 41.113281 189.675781 40.632812 190.15625 C 40.535156 190.253906 40.4375 190.351562 40.4375 190.351562 C 41.59375 192.75 42.832031 195.144531 44.074219 197.625 C 45.890625 201.164062 47.710938 204.714844 49.148438 207.871094 L 65.230469 207.871094 C 66.46875 205.195312 68.007812 202.21875 69.542969 199.160156 C 69.445312 199.0625 69.34375 198.964844 69.261719 198.878906 C 69.164062 198.878906 69.164062 198.878906 69.164062 198.78125 L 64.75 201.65625 C 64.847656 202.035156 64.949219 202.417969 64.949219 202.894531 C 64.949219 203.757812 64.667969 204.433594 64.089844 204.996094 C 63.609375 205.574219 62.847656 205.855469 61.988281 205.855469 C 61.128906 205.855469 60.367188 205.574219 59.886719 204.996094 C 59.308594 204.417969 59.027344 203.757812 59.027344 202.894531 C 59.027344 202.613281 59.027344 202.320312 59.125 202.035156 L 54.8125 200.035156 C 54.617188 200.316406 54.433594 200.613281 54.136719 200.894531 C 53.375 201.65625 52.21875 202.136719 50.980469 202.136719 C 49.738281 202.136719 48.585938 201.65625 47.824219 200.894531 C 47.0625 200.035156 46.484375 198.976562 46.484375 197.738281 C 46.484375 196.496094 47.0625 195.339844 47.824219 194.582031 C 48.585938 193.71875 49.738281 193.242188 50.980469 193.242188 C 52.21875 193.242188 53.375 193.71875 54.136719 194.582031 C 54.996094 195.339844 55.476562 196.496094 55.476562 197.738281 C 55.476562 198.21875 55.378906 198.695312 55.195312 199.175781 L 59.507812 201.191406 C 59.605469 200.992188 59.703125 200.910156 59.886719 200.808594 C 60.367188 200.230469 61.128906 199.851562 61.988281 199.851562 C 62.847656 199.851562 63.609375 200.230469 64.089844 200.808594 C 64.199219 200.796875 64.199219 200.796875 64.199219 200.894531 Z M 70.136719 179.640625 L 73.671875 184.234375 C 74.347656 183.855469 75.109375 183.558594 75.96875 183.558594 C 76.351562 183.558594 76.648438 183.558594 77.027344 183.65625 C 77.703125 181.839844 78.183594 180.203125 78.464844 178.679688 C 77.886719 178.582031 77.40625 178.300781 77.027344 177.921875 C 76.648438 177.441406 76.265625 176.863281 76.167969 176.300781 L 71.753906 176.300781 C 71.65625 177.539062 71.078125 178.695312 70.316406 179.554688 C 70.234375 179.542969 70.136719 179.640625 70.136719 179.640625 Z M 38.914062 170.449219 L 42.648438 170.351562 C 42.75 169.292969 43.226562 168.335938 43.988281 167.574219 L 44.085938 167.476562 L 42.46875 165.179688 C 41.988281 165.460938 41.410156 165.558594 40.847656 165.558594 C 40.167969 165.558594 39.605469 165.460938 39.125 165.179688 C 38.449219 166.136719 37.886719 167.195312 37.40625 168.335938 C 37.6875 168.433594 37.886719 168.617188 38.082031 168.816406 C 38.535156 169.292969 38.816406 169.773438 38.914062 170.449219 Z M 38.914062 170.449219 " fill-opacity="1" fill-rule="nonzero"/></g><g clip-path="url(#5a50fa54d1)"><path fill="#ffffff" d="M 57.210938 217.273438 L 51.753906 217.273438 C 51.753906 220.246094 54.25 222.726562 57.210938 222.726562 C 60.167969 222.726562 62.664062 220.234375 62.664062 217.273438 Z M 49.445312 213.636719 L 64.960938 213.636719 C 65.636719 213.636719 66.203125 214.214844 66.203125 214.976562 C 66.203125 215.652344 65.625 216.214844 64.960938 216.214844 L 49.445312 216.214844 C 48.765625 216.214844 48.203125 215.636719 48.203125 214.976562 C 48.203125 214.199219 48.78125 213.636719 49.445312 213.636719 Z M 49.445312 210.085938 L 64.960938 210.085938 C 65.636719 210.085938 66.203125 210.664062 66.203125 211.324219 C 66.203125 212.085938 65.625 212.664062 64.960938 212.664062 L 49.445312 212.664062 C 48.765625 212.664062 48.203125 212.085938 48.203125 211.324219 C 48.203125 210.664062 48.78125 210.085938 49.445312 210.085938 Z M 49.445312 210.085938 " fill-opacity="1" fill-rule="nonzero"/></g></svg>