<svg xmlns="http://www.w3.org/2000/svg" xmlns:xlink="http://www.w3.org/1999/xlink" width="1280" zoomAndPan="magnify" viewBox="0 0 960 540.000001" height="720" preserveAspectRatio="xMidYMid meet" version="1.0"><defs><filter x="0%" y="0%" width="100%" height="100%" id="589d1e5a86"><feColorMatrix values="0 0 0 0 1 0 0 0 0 1 0 0 0 0 1 0 0 0 1 0" color-interpolation-filters="sRGB"/></filter><clipPath id="801017ebcc"><path d="M 0.886719 178 L 404 178 L 404 470 L 0.886719 470 Z M 0.886719 178 " clip-rule="nonzero"/></clipPath><mask id="4d5b3df4b1"><g filter="url(#589d1e5a86)"><rect x="-96" width="1152" fill="#000000" y="-54" height="648.000001" fill-opacity="0.19"/></g></mask><clipPath id="7efc0c12b1"><path d="M 0.886719 1 L 402.046875 1 L 402.046875 291 L 0.886719 291 Z M 0.886719 1 " clip-rule="nonzero"/></clipPath><clipPath id="d3f3bbb552"><rect x="0" width="404" y="0" height="292"/></clipPath><mask id="44d01b7cb7"><g filter="url(#589d1e5a86)"><rect x="-96" width="1152" fill="#000000" y="-54" height="648.000001" fill-opacity="0.19"/></g></mask><clipPath id="3f971ade5b"><path d="M 0.945312 0 L 429.898438 0 L 429.898438 259.917969 L 0.945312 259.917969 Z M 0.945312 0 " clip-rule="nonzero"/></clipPath><clipPath id="974d13dae3"><rect x="0" width="431" y="0" height="260"/></clipPath><mask id="2bed86bc8f"><g filter="url(#589d1e5a86)"><rect x="-96" width="1152" fill="#000000" y="-54" height="648.000001" fill-opacity="0.19"/></g></mask><clipPath id="1629b6e63f"><path d="M 0.847656 0.890625 L 429.804688 0.890625 L 429.804688 222 L 0.847656 222 Z M 0.847656 0.890625 " clip-rule="nonzero"/></clipPath><clipPath id="256faeec11"><rect x="0" width="431" y="0" height="222"/></clipPath><mask id="9d75e62de2"><g filter="url(#589d1e5a86)"><rect x="-96" width="1152" fill="#000000" y="-54" height="648.000001" fill-opacity="0.19"/></g></mask><clipPath id="5133745817"><path d="M 0.703125 0.757812 L 429.65625 0.757812 L 429.65625 290.863281 L 0.703125 290.863281 Z M 0.703125 0.757812 " clip-rule="nonzero"/></clipPath><clipPath id="ae79a48604"><rect x="0" width="431" y="0" height="291"/></clipPath><mask id="08ccddc29f"><g filter="url(#589d1e5a86)"><rect x="-96" width="1152" fill="#000000" y="-54" height="648.000001" fill-opacity="0.19"/></g></mask><clipPath id="4cf365934a"><path d="M 0.550781 0 L 429.507812 0 L 429.507812 189.96875 L 0.550781 189.96875 Z M 0.550781 0 " clip-rule="nonzero"/></clipPath><clipPath id="a1219c0ef9"><rect x="0" width="431" y="0" height="190"/></clipPath><clipPath id="d2208fb7a6"><path d="M 673 38 L 959.113281 38 L 959.113281 329 L 673 329 Z M 673 38 " clip-rule="nonzero"/></clipPath><mask id="7d8fe2a7a9"><g filter="url(#589d1e5a86)"><rect x="-96" width="1152" fill="#000000" y="-54" height="648.000001" fill-opacity="0.19"/></g></mask><clipPath id="0668a22367"><path d="M 0.308594 0.808594 L 286.113281 0.808594 L 286.113281 290.910156 L 0.308594 290.910156 Z M 0.308594 0.808594 " clip-rule="nonzero"/></clipPath><clipPath id="3fd2d252ad"><rect x="0" width="287" y="0" height="291"/></clipPath><clipPath id="ea70210e9c"><path d="M 743 0 L 959.113281 0 L 959.113281 121 L 743 121 Z M 743 0 " clip-rule="nonzero"/></clipPath><mask id="0e1198987a"><g filter="url(#589d1e5a86)"><rect x="-96" width="1152" fill="#000000" y="-54" height="648.000001" fill-opacity="0.19"/></g></mask><clipPath id="04eb72122d"><path d="M 0.164062 0 L 216.113281 0 L 216.113281 120 L 0.164062 120 Z M 0.164062 0 " clip-rule="nonzero"/></clipPath><clipPath id="622d2f9888"><rect x="0" width="217" y="0" height="121"/></clipPath><clipPath id="024227b44f"><path d="M 533 456 L 959.113281 456 L 959.113281 539 L 533 539 Z M 533 456 " clip-rule="nonzero"/></clipPath><mask id="967d9152ba"><g filter="url(#589d1e5a86)"><rect x="-96" width="1152" fill="#000000" y="-54" height="648.000001" fill-opacity="0.19"/></g></mask><clipPath id="ca5d0d3654"><path d="M 0.429688 0.117188 L 426.113281 0.117188 L 426.113281 83 L 0.429688 83 Z M 0.429688 0.117188 " clip-rule="nonzero"/></clipPath><clipPath id="6f1a17e048"><rect x="0" width="427" y="0" height="83"/></clipPath><clipPath id="8f23c3b842"><path d="M 603 247 L 959.113281 247 L 959.113281 538 L 603 538 Z M 603 247 " clip-rule="nonzero"/></clipPath><mask id="b990f38c5a"><g filter="url(#589d1e5a86)"><rect x="-96" width="1152" fill="#000000" y="-54" height="648.000001" fill-opacity="0.19"/></g></mask><clipPath id="68186d0184"><path d="M 0.285156 0.222656 L 356.113281 0.222656 L 356.113281 290 L 0.285156 290 Z M 0.285156 0.222656 " clip-rule="nonzero"/></clipPath><clipPath id="67b054b082"><rect x="0" width="357" y="0" height="291"/></clipPath><clipPath id="3b59c79978"><path d="M 882 386 L 959.113281 386 L 959.113281 539 L 882 539 Z M 882 386 " clip-rule="nonzero"/></clipPath><mask id="ce23972818"><g filter="url(#589d1e5a86)"><rect x="-96" width="1152" fill="#000000" y="-54" height="648.000001" fill-opacity="0.19"/></g></mask><clipPath id="2d03e029a5"><path d="M 1.042969 0.164062 L 77.113281 0.164062 L 77.113281 153 L 1.042969 153 Z M 1.042969 0.164062 " clip-rule="nonzero"/></clipPath><clipPath id="bcca78cf1f"><rect x="0" width="78" y="0" height="153"/></clipPath><clipPath id="24fab331c0"><path d="M 0.886719 386 L 334 386 L 334 539 L 0.886719 539 Z M 0.886719 386 " clip-rule="nonzero"/></clipPath><mask id="99f6be4072"><g filter="url(#589d1e5a86)"><rect x="-96" width="1152" fill="#000000" y="-54" height="648.000001" fill-opacity="0.19"/></g></mask><clipPath id="7fbece4889"><path d="M 0.886719 0.164062 L 332.523438 0.164062 L 332.523438 153 L 0.886719 153 Z M 0.886719 0.164062 " clip-rule="nonzero"/></clipPath><clipPath id="3a54dc578a"><rect x="0" width="334" y="0" height="153"/></clipPath><clipPath id="2c0b39d974"><path d="M 0.886719 38 L 125 38 L 125 329 L 0.886719 329 Z M 0.886719 38 " clip-rule="nonzero"/></clipPath><mask id="2b26978b4f"><g filter="url(#589d1e5a86)"><rect x="-96" width="1152" fill="#000000" y="-54" height="648.000001" fill-opacity="0.19"/></g></mask><clipPath id="03fb0e0898"><path d="M 0.886719 0.808594 L 123.066406 0.808594 L 123.066406 290.910156 L 0.886719 290.910156 Z M 0.886719 0.808594 " clip-rule="nonzero"/></clipPath><clipPath id="298f564373"><rect x="0" width="125" y="0" height="291"/></clipPath><clipPath id="61a07a9ada"><path d="M 0.886719 0 L 194 0 L 194 121 L 0.886719 121 Z M 0.886719 0 " clip-rule="nonzero"/></clipPath><mask id="c39e9aa67a"><g filter="url(#589d1e5a86)"><rect x="-96" width="1152" fill="#000000" y="-54" height="648.000001" fill-opacity="0.19"/></g></mask><clipPath id="4f3deab747"><path d="M 0.886719 0 L 192.917969 0 L 192.917969 120 L 0.886719 120 Z M 0.886719 0 " clip-rule="nonzero"/></clipPath><clipPath id="3b45028824"><rect x="0" width="194" y="0" height="121"/></clipPath></defs><g clip-path="url(#801017ebcc)"><g mask="url(#4d5b3df4b1)"><g transform="matrix(1, 0, 0, 1, 0.000000000000000222, 178)"><g clip-path="url(#d3f3bbb552)"><g clip-path="url(#7efc0c12b1)"><path fill="#ff3131" d="M 402.117188 145.765625 L 257.394531 1.042969 L 187.558594 70.878906 L 117.8125 1.042969 L -26.910156 145.765625 L 117.8125 290.488281 L 187.648438 220.652344 L 257.484375 290.488281 Z M 117.8125 280.386719 L -16.894531 145.765625 L 117.8125 11.058594 L 182.597656 75.84375 L 117.8125 140.625 L 89.984375 112.796875 L 84.933594 117.851562 L 116.394531 149.3125 L 182.597656 215.511719 Z M 187.558594 80.894531 L 252.34375 145.679688 L 187.558594 210.550781 L 122.773438 145.765625 Z M 257.394531 150.730469 L 286.285156 179.621094 L 291.335938 174.570312 L 192.609375 75.84375 L 257.394531 11.058594 L 392.011719 145.679688 L 257.394531 280.386719 L 192.609375 215.511719 Z M 257.394531 150.730469 " fill-opacity="1" fill-rule="nonzero"/></g></g></g></g></g><g mask="url(#44d01b7cb7)"><g transform="matrix(1, 0, 0, 1, 42, 0.000000000000017795)"><g clip-path="url(#974d13dae3)"><g clip-path="url(#3f971ade5b)"><path fill="#ff3131" d="M 429.96875 114.761719 L 285.25 -29.960938 L 215.414062 39.875 L 145.667969 -29.960938 L 0.945312 114.761719 L 145.667969 259.480469 L 215.5 189.648438 L 285.335938 259.480469 Z M 145.667969 249.378906 L 10.960938 114.761719 L 145.667969 -19.949219 L 210.449219 44.835938 L 145.667969 109.621094 L 117.839844 81.792969 L 112.789062 86.84375 L 144.25 118.304688 L 210.449219 184.507812 Z M 215.414062 49.886719 L 280.195312 114.671875 L 215.414062 179.542969 L 150.628906 114.761719 Z M 285.25 119.722656 L 314.140625 148.613281 L 319.191406 143.5625 L 220.464844 44.835938 L 285.25 -19.949219 L 419.867188 114.671875 L 285.25 249.378906 L 220.464844 184.507812 Z M 285.25 119.722656 " fill-opacity="1" fill-rule="nonzero"/></g></g></g></g><g mask="url(#2bed86bc8f)"><g transform="matrix(1, 0, 0, 1, 252, 317)"><g clip-path="url(#256faeec11)"><g clip-path="url(#1629b6e63f)"><path fill="#ff3131" d="M 429.875 145.71875 L 285.152344 0.996094 L 215.316406 70.832031 L 145.570312 0.996094 L 0.847656 145.71875 L 145.570312 290.441406 L 215.40625 220.605469 L 285.242188 290.441406 Z M 145.570312 280.335938 L 10.863281 145.71875 L 145.570312 11.011719 L 210.355469 75.796875 L 145.570312 140.578125 L 117.742188 112.75 L 112.691406 117.800781 L 144.152344 149.265625 L 210.355469 215.464844 Z M 215.316406 80.847656 L 280.101562 145.628906 L 215.316406 210.503906 L 150.53125 145.71875 Z M 285.152344 150.683594 L 314.042969 179.574219 L 319.09375 174.523438 L 290.203125 145.628906 L 220.367188 75.796875 L 285.152344 11.011719 L 419.769531 145.628906 L 285.152344 280.335938 L 220.367188 215.464844 Z M 285.152344 150.683594 " fill-opacity="1" fill-rule="nonzero"/></g></g></g></g><g mask="url(#9d75e62de2)"><g transform="matrix(1, 0, 0, 1, 322, 108)"><g clip-path="url(#ae79a48604)"><g clip-path="url(#5133745817)"><path fill="#ff3131" d="M 429.726562 145.710938 L 285.007812 0.992188 L 215.171875 70.824219 L 145.425781 0.992188 L 0.703125 145.710938 L 145.425781 290.433594 L 215.257812 220.597656 L 285.09375 290.433594 Z M 145.425781 280.332031 L 10.71875 145.710938 L 145.425781 11.003906 L 210.207031 75.789062 L 145.425781 140.574219 L 117.597656 112.746094 L 112.546875 117.796875 L 144.007812 149.257812 L 210.207031 215.460938 Z M 215.171875 80.839844 L 279.953125 145.625 L 215.171875 210.496094 L 150.386719 145.710938 Z M 285.007812 150.675781 L 313.898438 179.566406 L 318.949219 174.515625 L 220.222656 75.789062 L 285.007812 11.003906 L 419.625 145.625 L 285.007812 280.332031 L 220.222656 215.460938 Z M 285.007812 150.675781 " fill-opacity="1" fill-rule="nonzero"/></g></g></g></g><g mask="url(#08ccddc29f)"><g transform="matrix(1, 0, 0, 1, 393, 0.000000000000017795)"><g clip-path="url(#a1219c0ef9)"><g clip-path="url(#4cf365934a)"><path fill="#ff3131" d="M 429.578125 44.757812 L 284.855469 -99.964844 L 215.019531 -30.128906 L 145.273438 -99.964844 L 0.550781 44.757812 L 145.273438 189.480469 L 215.109375 119.644531 L 284.945312 189.480469 Z M 145.273438 179.378906 L 10.566406 44.757812 L 145.273438 -89.949219 L 210.058594 -25.164062 L 145.273438 39.617188 L 117.445312 11.789062 L 112.394531 16.84375 L 143.855469 48.304688 L 210.058594 114.503906 Z M 215.019531 -20.113281 L 279.804688 44.671875 L 215.019531 109.542969 L 150.238281 44.757812 Z M 284.855469 49.722656 L 313.746094 78.613281 L 318.796875 73.5625 L 220.070312 -25.164062 L 284.855469 -89.949219 L 419.472656 44.671875 L 284.855469 179.378906 L 220.070312 114.503906 Z M 284.855469 49.722656 " fill-opacity="1" fill-rule="nonzero"/></g></g></g></g><g clip-path="url(#d2208fb7a6)"><g mask="url(#7d8fe2a7a9)"><g transform="matrix(1, 0, 0, 1, 673, 38)"><g clip-path="url(#3fd2d252ad)"><g clip-path="url(#0668a22367)"><path fill="#ff3131" d="M 429.335938 145.710938 L 284.613281 0.988281 L 214.777344 70.824219 L 145.03125 0.988281 L 0.308594 145.710938 L 145.03125 290.433594 L 214.867188 220.597656 L 284.703125 290.433594 Z M 145.03125 280.328125 L 10.324219 145.710938 L 145.03125 11.003906 L 209.816406 75.789062 L 145.03125 140.570312 L 117.203125 112.742188 L 112.152344 117.792969 L 143.613281 149.257812 L 209.816406 215.457031 Z M 214.777344 80.839844 L 279.5625 145.621094 L 214.777344 210.496094 L 149.996094 145.710938 Z M 284.613281 150.675781 L 313.503906 179.566406 L 318.554688 174.515625 L 289.664062 145.621094 L 219.828125 75.789062 L 284.613281 11.003906 L 419.230469 145.621094 L 284.613281 280.328125 L 219.828125 215.457031 Z M 284.613281 150.675781 " fill-opacity="1" fill-rule="nonzero"/></g></g></g></g></g><g clip-path="url(#ea70210e9c)"><g mask="url(#0e1198987a)"><g transform="matrix(1, 0, 0, 1, 743, 0.000000000000017795)"><g clip-path="url(#622d2f9888)"><g clip-path="url(#04eb72122d)"><path fill="#ff3131" d="M 429.191406 -25.296875 L 284.46875 -170.015625 L 214.632812 -100.183594 L 144.886719 -170.015625 L 0.164062 -25.296875 L 144.886719 119.425781 L 214.722656 49.589844 L 284.554688 119.425781 Z M 144.886719 109.324219 L 10.179688 -25.296875 L 144.886719 -160.003906 L 209.667969 -95.21875 L 144.886719 -30.433594 L 117.058594 -58.261719 L 112.007812 -53.210938 L 143.46875 -21.75 L 209.667969 44.453125 Z M 214.632812 -90.167969 L 279.417969 -25.382812 L 214.632812 39.488281 L 149.847656 -25.296875 Z M 284.46875 -20.332031 L 313.359375 8.558594 L 318.410156 3.507812 L 219.683594 -95.21875 L 284.46875 -160.003906 L 419.085938 -25.382812 L 284.46875 109.324219 L 219.683594 44.453125 Z M 284.46875 -20.332031 " fill-opacity="1" fill-rule="nonzero"/></g></g></g></g></g><g clip-path="url(#024227b44f)"><g mask="url(#967d9152ba)"><g transform="matrix(1, 0, 0, 1, 533, 456)"><g clip-path="url(#6f1a17e048)"><g clip-path="url(#ca5d0d3654)"><path fill="#ff3131" d="M 429.457031 144.976562 L 284.734375 0.253906 L 214.898438 70.089844 L 145.152344 0.253906 L 0.429688 144.976562 L 145.152344 289.695312 L 214.988281 219.863281 L 284.824219 289.695312 Z M 145.152344 279.59375 L 10.445312 144.976562 L 145.152344 10.265625 L 209.9375 75.050781 L 145.152344 139.835938 L 117.324219 112.007812 L 112.273438 117.058594 L 209.9375 214.722656 Z M 214.898438 80.101562 L 279.683594 144.886719 L 214.898438 209.757812 L 150.117188 144.976562 Z M 284.734375 149.9375 L 313.625 178.828125 L 318.675781 173.777344 L 219.949219 75.050781 L 284.734375 10.265625 L 419.351562 144.886719 L 284.734375 279.59375 L 219.949219 214.722656 Z M 284.734375 149.9375 " fill-opacity="1" fill-rule="nonzero"/></g></g></g></g></g><g clip-path="url(#8f23c3b842)"><g mask="url(#b990f38c5a)"><g transform="matrix(1, 0, 0, 1, 603, 247)"><g clip-path="url(#67b054b082)"><g clip-path="url(#68186d0184)"><path fill="#ff3131" d="M 429.3125 144.96875 L 284.589844 0.246094 L 214.753906 70.082031 L 145.007812 0.246094 L 0.285156 144.96875 L 145.007812 289.691406 L 214.84375 219.855469 L 284.675781 289.691406 Z M 145.007812 279.585938 L 10.300781 144.96875 L 145.007812 10.261719 L 209.789062 75.042969 L 145.007812 139.828125 L 117.179688 112 L 112.128906 117.050781 L 143.589844 148.511719 L 209.789062 214.714844 Z M 214.753906 80.097656 L 279.539062 144.878906 L 214.753906 209.753906 L 149.96875 144.96875 Z M 284.589844 149.929688 L 313.480469 178.824219 L 318.53125 173.769531 L 219.804688 75.042969 L 284.589844 10.261719 L 419.207031 144.878906 L 284.589844 279.585938 L 219.804688 214.714844 Z M 284.589844 149.929688 " fill-opacity="1" fill-rule="nonzero"/></g></g></g></g></g><g clip-path="url(#3b59c79978)"><g mask="url(#ce23972818)"><g transform="matrix(1, 0, 0, 1, 882, 386)"><g clip-path="url(#bcca78cf1f)"><g clip-path="url(#2d03e029a5)"><path fill="#ff3131" d="M 430.070312 144.921875 L 285.347656 0.199219 L 215.511719 70.035156 L 145.765625 0.199219 L 1.042969 144.921875 L 145.765625 289.644531 L 215.601562 219.808594 L 285.433594 289.644531 Z M 145.765625 279.539062 L 11.058594 144.921875 L 145.765625 10.214844 L 210.546875 74.996094 L 145.765625 139.78125 L 117.9375 111.953125 L 112.886719 117.003906 L 144.347656 148.464844 L 210.546875 214.667969 Z M 215.511719 80.046875 L 280.296875 144.832031 L 215.511719 209.703125 L 150.726562 144.921875 Z M 285.347656 149.882812 L 314.238281 178.773438 L 319.289062 173.722656 L 220.5625 74.996094 L 285.347656 10.214844 L 419.964844 144.832031 L 285.347656 279.539062 L 220.5625 214.667969 Z M 285.347656 149.882812 " fill-opacity="1" fill-rule="nonzero"/></g></g></g></g></g><g clip-path="url(#24fab331c0)"><g mask="url(#99f6be4072)"><g transform="matrix(1, 0, 0, 1, 0.000000000000000222, 386)"><g clip-path="url(#3a54dc578a)"><g clip-path="url(#7fbece4889)"><path fill="#ff3131" d="M 332.59375 144.921875 L 187.871094 0.199219 L 118.035156 70.035156 L 48.289062 0.199219 L -96.433594 144.921875 L 48.289062 289.644531 L 118.125 219.808594 L 187.960938 289.644531 Z M 48.289062 279.539062 L -86.417969 144.921875 L 48.289062 10.214844 L 113.074219 74.996094 L 48.289062 139.78125 L 20.460938 111.953125 L 15.410156 117.003906 L 113.074219 214.667969 Z M 118.035156 80.046875 L 182.820312 144.832031 L 118.035156 209.703125 L 53.25 144.921875 Z M 187.871094 149.882812 L 216.761719 178.773438 L 221.8125 173.722656 L 123.085938 74.996094 L 187.871094 10.214844 L 322.488281 144.832031 L 187.871094 279.539062 L 123.085938 214.667969 Z M 187.871094 149.882812 " fill-opacity="1" fill-rule="nonzero"/></g></g></g></g></g><g clip-path="url(#2c0b39d974)"><g mask="url(#2b26978b4f)"><g transform="matrix(1, 0, 0, 1, 0.000000000000000222, 38)"><g clip-path="url(#298f564373)"><g clip-path="url(#03fb0e0898)"><path fill="#ff3131" d="M 123.136719 145.710938 L -21.585938 0.988281 L -91.421875 70.824219 L -161.167969 0.988281 L -305.890625 145.710938 L -161.167969 290.433594 L -91.332031 220.597656 L -21.496094 290.433594 Z M -161.167969 280.328125 L -295.875 145.710938 L -161.167969 11.003906 L -96.382812 75.789062 L -161.167969 140.570312 L -188.996094 112.742188 L -194.046875 117.792969 L -162.585938 149.257812 L -96.382812 215.457031 Z M -91.421875 80.839844 L -26.636719 145.621094 L -91.421875 210.496094 L -156.207031 145.710938 Z M -21.585938 150.675781 L 7.304688 179.566406 L 12.355469 174.515625 L -16.535156 145.621094 L -86.371094 75.789062 L -21.585938 11.003906 L 113.03125 145.621094 L -21.585938 280.328125 L -86.371094 215.457031 Z M -21.585938 150.675781 " fill-opacity="1" fill-rule="nonzero"/></g></g></g></g></g><g clip-path="url(#61a07a9ada)"><g mask="url(#c39e9aa67a)"><g transform="matrix(1, 0, 0, 1, 0.000000000000000222, 0.000000000000017795)"><g clip-path="url(#3b45028824)"><g clip-path="url(#4f3deab747)"><path fill="#ff3131" d="M 192.988281 -25.296875 L 48.269531 -170.015625 L -21.566406 -100.183594 L -91.3125 -170.015625 L -236.035156 -25.296875 L -91.3125 119.425781 L -21.480469 49.589844 L 48.355469 119.425781 Z M -91.3125 109.324219 L -226.019531 -25.296875 L -91.3125 -160.003906 L -26.53125 -95.21875 L -91.3125 -30.433594 L -119.140625 -58.261719 L -124.191406 -53.210938 L -92.730469 -21.75 L -26.53125 44.453125 Z M -21.566406 -90.167969 L 43.214844 -25.382812 L -21.566406 39.488281 L -86.351562 -25.296875 Z M 48.269531 -20.332031 L 77.160156 8.558594 L 82.210938 3.507812 L -16.515625 -95.21875 L 48.269531 -160.003906 L 182.886719 -25.382812 L 48.269531 109.324219 L -16.515625 44.453125 Z M 48.269531 -20.332031 " fill-opacity="1" fill-rule="nonzero"/></g></g></g></g></g></svg>